<svg width="925" height="155" viewBox="0 0 925 155" fill="none" xmlns="http://www.w3.org/2000/svg">
<path d="M64.3633 52.5254C80.9704 46.7129 96.9333 62.6761 91.1211 79.2832L73.0479 130.924C67.0771 147.983 42.9071 147.855 37.1162 130.734L31.0771 112.883C31.0271 112.735 30.9111 112.619 30.7637 112.569L12.9121 106.53C-4.20819 100.739 -4.33603 76.5695 12.7227 70.5986L64.3633 52.5254ZM77.9072 74.6582C79.8443 69.1226 74.5239 63.8019 68.9883 65.7393L17.3477 83.8135C12.859 85.3849 12.8926 91.7443 17.3975 93.2686L35.25 99.3066C39.5305 100.755 42.8918 104.116 44.3398 108.396L50.3779 126.249C51.9018 130.755 58.2617 130.788 59.833 126.299L77.9072 74.6582ZM69.1592 13C103.056 13 130.534 40.4785 130.534 74.375C130.534 90.2936 124.465 104.811 114.525 115.713C111.921 118.57 107.494 118.774 104.637 116.17C101.78 113.565 101.575 109.138 104.18 106.281C111.86 97.8568 116.534 86.6697 116.534 74.375C116.534 48.2105 95.3237 27 69.1592 27C56.8645 27 45.6774 31.6742 37.2529 39.3545C34.396 41.9589 29.9688 41.7543 27.3643 38.8975C24.7599 36.0406 24.9645 31.6133 27.8213 29.0088C38.7234 19.0697 53.2406 13 69.1592 13Z" fill="black"/>
<path d="M64.3633 52.5254C80.9704 46.7129 96.9333 62.6761 91.1211 79.2832L73.0479 130.924C67.0771 147.983 42.9071 147.855 37.1162 130.734L31.0771 112.883C31.0271 112.735 30.9111 112.619 30.7637 112.569L12.9121 106.53C-4.20819 100.739 -4.33603 76.5695 12.7227 70.5986L64.3633 52.5254ZM77.9072 74.6582C79.8443 69.1226 74.5239 63.8019 68.9883 65.7393L17.3477 83.8135C12.859 85.3849 12.8926 91.7443 17.3975 93.2686L35.25 99.3066C39.5305 100.755 42.8918 104.116 44.3398 108.396L50.3779 126.249C51.9018 130.755 58.2617 130.788 59.833 126.299L77.9072 74.6582ZM69.1592 13C103.056 13 130.534 40.4785 130.534 74.375C130.534 90.2936 124.465 104.811 114.525 115.713C111.921 118.57 107.494 118.774 104.637 116.17C101.78 113.565 101.575 109.138 104.18 106.281C111.86 97.8568 116.534 86.6697 116.534 74.375C116.534 48.2105 95.3237 27 69.1592 27C56.8645 27 45.6774 31.6742 37.2529 39.3545C34.396 41.9589 29.9688 41.7543 27.3643 38.8975C24.7599 36.0406 24.9645 31.6133 27.8213 29.0088C38.7234 19.0697 53.2406 13 69.1592 13Z" stroke="black"/>
<path d="M182.591 124V30.9091H201V108.727H241.409V124H182.591ZM271.695 125.364C267.241 125.364 263.256 124.576 259.741 123C256.256 121.424 253.498 119.091 251.468 116C249.438 112.909 248.423 109.061 248.423 104.455C248.423 100.545 249.135 97.2879 250.559 94.6818C252.014 92.0758 253.983 89.9848 256.468 88.4091C258.953 86.8333 261.771 85.6364 264.923 84.8182C268.074 84 271.362 83.4242 274.786 83.0909C278.847 82.6667 282.135 82.2727 284.65 81.9091C287.165 81.5455 288.998 80.9848 290.15 80.2273C291.302 79.4697 291.877 78.3333 291.877 76.8182V76.5455C291.877 73.4242 290.923 71.0152 289.014 69.3182C287.105 67.5909 284.377 66.7273 280.832 66.7273C277.105 66.7273 274.135 67.5455 271.923 69.1818C269.741 70.7879 268.286 72.7727 267.559 75.1364L250.786 73.3636C251.847 69.1212 253.726 65.5 256.423 62.5C259.15 59.5 262.589 57.2121 266.741 55.6364C270.892 54.0606 275.589 53.2727 280.832 53.2727C284.498 53.2727 288.059 53.697 291.514 54.5455C294.968 55.3939 298.074 56.7576 300.832 58.6364C303.589 60.4848 305.786 62.9242 307.423 65.9545C309.089 68.9848 309.923 72.697 309.923 77.0909V124H292.695V114.364H292.15C291.089 116.424 289.635 118.288 287.786 119.955C285.938 121.621 283.68 122.939 281.014 123.909C278.347 124.879 275.241 125.364 271.695 125.364ZM276.65 112.591C279.711 112.591 282.377 111.985 284.65 110.773C286.953 109.53 288.741 107.894 290.014 105.864C291.317 103.803 291.968 101.515 291.968 99V91.2273C291.392 91.6212 290.544 92 289.423 92.3636C288.302 92.697 287.029 93 285.605 93.2727C284.211 93.5152 282.817 93.7424 281.423 93.9545C280.059 94.1667 278.832 94.3485 277.741 94.5C275.408 94.8333 273.332 95.3788 271.514 96.1364C269.695 96.8636 268.271 97.8636 267.241 99.1364C266.241 100.409 265.741 102.03 265.741 104C265.741 106.818 266.771 108.955 268.832 110.409C270.892 111.864 273.498 112.591 276.65 112.591ZM367.527 94.4545V54.1818H385.573V124H368.164V111.455H367.436C365.861 115.455 363.255 118.697 359.618 121.182C356.012 123.667 351.588 124.909 346.345 124.909C341.709 124.909 337.618 123.864 334.073 121.773C330.558 119.682 327.815 116.682 325.845 112.773C323.876 108.864 322.876 104.152 322.845 98.6364V54.1818H340.891V95.5909C340.921 99.8636 342.073 103.242 344.345 105.727C346.648 108.212 349.694 109.455 353.482 109.455C355.876 109.455 358.133 108.894 360.255 107.773C362.406 106.652 364.148 104.985 365.482 102.773C366.845 100.53 367.527 97.7576 367.527 94.4545ZM416.916 83.4091V124H398.87V54.1818H416.098V66.3182H416.916C418.492 62.3182 421.067 59.1515 424.643 56.8182C428.249 54.4545 432.643 53.2727 437.825 53.2727C442.673 53.2727 446.901 54.3182 450.507 56.4091C454.113 58.5 456.901 61.5152 458.87 65.4545C460.87 69.3636 461.87 74.0606 461.87 79.5455V124H443.78V82.5909C443.81 78.1364 442.673 74.6515 440.37 72.1364C438.067 69.6212 434.901 68.3636 430.87 68.3636C428.143 68.3636 425.719 68.9545 423.598 70.1364C421.507 71.3182 419.87 73.0303 418.689 75.2727C417.537 77.5152 416.946 80.2273 416.916 83.4091ZM505.941 125.364C498.88 125.364 492.82 123.848 487.759 120.818C482.698 117.758 478.805 113.515 476.077 108.091C473.35 102.667 471.986 96.4242 471.986 89.3636C471.986 82.2424 473.365 75.9697 476.123 70.5455C478.88 65.1212 482.789 60.8939 487.85 57.8636C492.911 54.803 498.911 53.2727 505.85 53.2727C511.759 53.2727 516.956 54.3485 521.441 56.5C525.926 58.6515 529.486 61.6818 532.123 65.5909C534.759 69.4697 536.244 74.0303 536.577 79.2727H519.441C518.865 75.8485 517.441 73.0455 515.168 70.8636C512.895 68.6515 509.88 67.5455 506.123 67.5455C502.971 67.5455 500.214 68.3939 497.85 70.0909C495.486 71.7879 493.638 74.2424 492.305 77.4545C491.002 80.6667 490.35 84.5455 490.35 89.0909C490.35 93.6667 491.002 97.5909 492.305 100.864C493.608 104.106 495.441 106.591 497.805 108.318C500.168 110.045 502.941 110.909 506.123 110.909C508.456 110.909 510.532 110.455 512.35 109.545C514.198 108.606 515.729 107.273 516.941 105.545C518.183 103.788 519.017 101.667 519.441 99.1818H536.577C536.214 104.333 534.759 108.879 532.214 112.818C529.668 116.758 526.168 119.833 521.714 122.045C517.259 124.258 512.002 125.364 505.941 125.364ZM564.716 83.4091V124H546.67V30.9091H564.261V66.3182H565.08C566.686 62.2576 569.231 59.0758 572.716 56.7727C576.201 54.4394 580.595 53.2727 585.898 53.2727C590.746 53.2727 594.973 54.3182 598.58 56.4091C602.216 58.4697 605.034 61.4545 607.034 65.3636C609.034 69.2727 610.019 74 609.989 79.5455V124H591.943V82.5909C591.973 78.1061 590.837 74.6212 588.534 72.1364C586.231 69.6212 583.034 68.3636 578.943 68.3636C576.186 68.3636 573.731 68.9545 571.58 70.1364C569.428 71.3182 567.746 73.0303 566.534 75.2727C565.352 77.5152 564.746 80.2273 564.716 83.4091ZM623.07 150.182V54.1818H640.843V65.8182H641.752C642.601 64.0303 643.813 62.1667 645.389 60.2273C646.995 58.2879 649.116 56.6515 651.752 55.3182C654.389 53.9545 657.692 53.2727 661.661 53.2727C666.904 53.2727 671.677 54.6212 675.98 57.3182C680.313 60.0151 683.767 64.0303 686.343 69.3636C688.919 74.697 690.207 81.303 690.207 89.1818C690.207 96.9091 688.949 103.455 686.434 108.818C683.919 114.182 680.51 118.258 676.207 121.045C671.904 123.803 667.055 125.182 661.661 125.182C657.783 125.182 654.525 124.545 651.889 123.273C649.283 121.97 647.161 120.379 645.525 118.5C643.889 116.591 642.631 114.727 641.752 112.909H641.116V150.182H623.07ZM640.752 89.0909C640.752 93.3939 641.358 97.1667 642.57 100.409C643.783 103.621 645.54 106.136 647.843 107.955C650.146 109.742 652.934 110.636 656.207 110.636C659.601 110.636 662.449 109.712 664.752 107.864C667.055 106.015 668.798 103.485 669.98 100.273C671.161 97.0303 671.752 93.303 671.752 89.0909C671.752 84.9091 671.161 81.2273 669.98 78.0455C668.828 74.8333 667.101 72.3333 664.798 70.5455C662.495 68.7273 659.631 67.8182 656.207 67.8182C652.904 67.8182 650.101 68.697 647.798 70.4545C645.495 72.2121 643.737 74.6818 642.525 77.8636C641.343 81.0455 640.752 84.7879 640.752 89.0909ZM731.766 125.364C724.827 125.364 718.811 123.864 713.72 120.864C708.66 117.833 704.736 113.621 701.948 108.227C699.19 102.833 697.811 96.5455 697.811 89.3636C697.811 82.1515 699.19 75.8485 701.948 70.4545C704.736 65.0303 708.66 60.8182 713.72 57.8182C718.811 54.7879 724.827 53.2727 731.766 53.2727C738.736 53.2727 744.751 54.7879 749.811 57.8182C754.902 60.8182 758.827 65.0303 761.584 70.4545C764.342 75.8485 765.72 82.1515 765.72 89.3636C765.72 96.5455 764.342 102.833 761.584 108.227C758.827 113.621 754.902 117.833 749.811 120.864C744.751 123.864 738.736 125.364 731.766 125.364ZM731.857 111.182C735.311 111.182 738.19 110.227 740.493 108.318C742.796 106.379 744.523 103.758 745.675 100.455C746.827 97.1515 747.402 93.4242 747.402 89.2727C747.402 85.1212 746.827 81.3939 745.675 78.0909C744.523 74.7576 742.796 72.1212 740.493 70.1818C738.19 68.2424 735.311 67.2727 731.857 67.2727C728.372 67.2727 725.463 68.2424 723.13 70.1818C720.796 72.1212 719.054 74.7576 717.902 78.0909C716.751 81.3939 716.175 85.1212 716.175 89.2727C716.175 93.4242 716.751 97.1515 717.902 100.455C719.054 103.758 720.796 106.379 723.13 108.318C725.463 110.227 728.372 111.182 731.857 111.182ZM776.12 124V54.1818H794.166V124H776.12ZM785.211 44.7727C782.454 44.7727 780.09 43.8485 778.12 42C776.151 40.1515 775.166 37.9394 775.166 35.3636C775.166 32.7879 776.151 30.5758 778.12 28.7273C780.09 26.8788 782.454 25.9545 785.211 25.9545C787.969 25.9545 790.333 26.8788 792.302 28.7273C794.272 30.5758 795.257 32.7879 795.257 35.3636C795.257 37.9394 794.272 40.1515 792.302 42C790.333 43.8485 787.969 44.7727 785.211 44.7727ZM825.441 83.4091V124H807.395V54.1818H824.623V66.3182H825.441C827.017 62.3182 829.592 59.1515 833.168 56.8182C836.774 54.4545 841.168 53.2727 846.35 53.2727C851.198 53.2727 855.426 54.3182 859.032 56.4091C862.638 58.5 865.426 61.5152 867.395 65.4545C869.395 69.3636 870.395 74.0606 870.395 79.5455V124H852.305V82.5909C852.335 78.1364 851.198 74.6515 848.895 72.1364C846.592 69.6212 843.426 68.3636 839.395 68.3636C836.668 68.3636 834.244 68.9545 832.123 70.1364C830.032 71.3182 828.395 73.0303 827.214 75.2727C826.062 77.5152 825.471 80.2273 825.441 83.4091ZM919.557 54.1818V67.9091H878.375V54.1818H919.557ZM888.057 37.4545H906.102V102.727C906.102 104.727 906.405 106.258 907.011 107.318C907.617 108.379 908.451 109.121 909.511 109.545C910.572 109.939 911.754 110.136 913.057 110.136C914.027 110.136 914.951 110.061 915.83 109.909C916.739 109.758 917.42 109.621 917.875 109.5L920.83 123.227C919.89 123.53 918.572 123.864 916.875 124.227C915.178 124.621 913.117 124.864 910.693 124.955C906.269 125.106 902.345 124.485 898.92 123.091C895.527 121.667 892.86 119.485 890.92 116.545C888.981 113.576 888.027 109.848 888.057 105.364V37.4545Z" fill="black"/>
</svg>
